<?xml version="1.0" standalone="no"?>
<!DOCTYPE svg PUBLIC "-//W3C//DTD SVG 20010904//EN"
 "http://www.w3.org/TR/2001/REC-SVG-20010904/DTD/svg10.dtd">
<svg version="1.0" xmlns="http://www.w3.org/2000/svg"
 width="24.000000pt" height="24.000000pt" viewBox="0 0 24.000000 24.000000"
 preserveAspectRatio="xMidYMid meet">

<g transform="translate(0.000000,24.000000) scale(0.100000,-0.100000)"
fill="#000000" stroke="none">
<path d="M80 223 c-8 -3 -19 -12 -23 -20 -6 -10 -13 -10 -27 -3 -16 8 -18 8
-14 -5 4 -8 11 -15 17 -15 6 0 1 -7 -11 -16 -29 -20 -31 -79 -2 -94 11 -6 31
-22 44 -35 37 -37 104 -30 120 12 6 14 2 13 -14 -5 -32 -34 -69 -28 -118 17
-23 22 -42 48 -42 58 0 27 75 103 102 103 38 0 68 -12 68 -26 0 -7 12 -21 26
-31 21 -13 25 -23 22 -49 -2 -18 0 -30 4 -28 10 6 10 55 0 70 -4 6 -15 13 -24
17 -10 3 -18 13 -18 22 0 26 -68 43 -110 28z"/>
<path d="M113 143 c32 -4 37 -8 37 -29 0 -20 -5 -24 -29 -24 -21 0 -30 6 -34
22 -4 12 -8 20 -11 17 -3 -3 -3 -15 1 -27 4 -18 13 -22 44 -22 38 0 39 1 39
35 0 35 0 35 -42 33 l-43 -1 38 -4z"/>
<path d="M180 138 c0 -11 28 -10 35 1 3 6 -4 9 -15 8 -11 -1 -20 -5 -20 -9z"/>
<path d="M23 118 c2 -7 10 -13 17 -13 7 0 15 6 18 13 2 7 -5 12 -18 12 -13 0
-20 -5 -17 -12z"/>
<path d="M175 99 c7 -11 35 -12 35 -1 0 4 -9 8 -20 9 -11 1 -18 -2 -15 -8z"/>
<path d="M108 43 c7 -3 16 -2 19 1 4 3 -2 6 -13 5 -11 0 -14 -3 -6 -6z"/>
</g>
</svg>
